<svg data-v-fde0c5aa="" xmlns="http://www.w3.org/2000/svg" viewBox="0 0 300 300" class="iconLeft"><!----><defs data-v-fde0c5aa=""><!----></defs><rect data-v-fde0c5aa="" fill="#E4ECEE" x="0" y="0" width="300px" height="300px" class="logo-background-square"></rect><defs data-v-fde0c5aa=""><!----></defs><g data-v-fde0c5aa="" id="90de20a5-870a-49ac-a36b-907ffa4ae3df" fill="#242E31" transform="matrix(1.4441598653793335,0,0,1.4441598653793335,75.5932032484875,138.77391399138824)"><path d="M12.36 4.38L11.23 4.51L11.23 4.51Q11.20 5.38 11.20 6.25L11.20 6.25L11.20 6.25Q11.20 7.13 11.20 8.02L11.20 8.02L11.20 8.51L11.20 8.51Q11.20 9.39 11.20 10.27L11.20 10.27L11.20 10.27Q11.20 11.14 11.23 12.03L11.23 12.03L12.36 12.15L12.36 12.85L7.99 12.85L7.99 12.15L9.13 12.03L9.13 12.03Q9.16 11.16 9.16 10.28L9.16 10.28L9.16 10.28Q9.16 9.41 9.16 8.51L9.16 8.51L9.16 6.05L6.02 12.85L5.46 12.85L2.30 6.06L2.30 11.97L3.61 12.15L3.61 12.85L0.21 12.85L0.21 12.15L1.53 11.97L1.53 4.51L0.36 4.38L0.36 3.68L3.18 3.68L6.34 10.26L9.42 3.68L12.36 3.68L12.36 4.38ZM16.83 11.61L16.83 9.24L16.83 9.24Q16.56 9.31 16.33 9.39L16.33 9.39L16.33 9.39Q16.10 9.46 15.93 9.53L15.93 9.53L15.93 9.53Q15.32 9.77 15.08 10.14L15.08 10.14L15.08 10.14Q14.84 10.50 14.84 10.95L14.84 10.95L14.84 10.95Q14.84 11.23 14.92 11.40L14.92 11.40L14.92 11.40Q14.99 11.56 15.11 11.68L15.11 11.68L15.11 11.68Q15.40 11.97 15.89 11.97L15.89 11.97L15.89 11.97Q16.11 11.97 16.32 11.89L16.32 11.89L16.32 11.89Q16.53 11.82 16.83 11.61L16.83 11.61ZM19.57 11.70L19.94 11.97L19.94 11.97Q19.66 12.54 19.30 12.77L19.30 12.77L19.30 12.77Q18.94 12.99 18.41 12.99L18.41 12.99L18.41 12.99Q17.84 12.99 17.46 12.77L17.46 12.77L17.46 12.77Q17.08 12.54 16.93 12.18L16.93 12.18L16.93 12.18Q16.45 12.61 16.01 12.84L16.01 12.84L16.01 12.84Q15.57 13.06 14.91 13.06L14.91 13.06L14.91 13.06Q14.07 13.06 13.54 12.63L13.54 12.63L13.54 12.63Q13.02 12.21 13.02 11.38L13.02 11.38L13.02 11.38Q13.02 11.06 13.13 10.75L13.13 10.75L13.13 10.75Q13.23 10.43 13.52 10.13L13.52 10.13L13.52 10.13Q13.80 9.83 14.31 9.55L14.31 9.55L14.31 9.55Q14.81 9.27 15.61 9.00L15.61 9.00L15.61 9.00Q15.85 8.92 16.17 8.83L16.17 8.83L16.17 8.83Q16.49 8.74 16.83 8.64L16.83 8.64L16.83 8.22L16.83 8.22Q16.83 7.34 16.56 6.96L16.56 6.96L16.56 6.96Q16.30 6.58 15.62 6.58L15.62 6.58L15.62 6.58Q15.51 6.58 15.41 6.59L15.41 6.59L15.41 6.59Q15.30 6.59 15.19 6.61L15.19 6.61L15.08 7.42L15.08 7.42Q15.01 7.97 14.74 8.23L14.74 8.23L14.74 8.23Q14.48 8.50 14.11 8.50L14.11 8.50L14.11 8.50Q13.79 8.50 13.56 8.30L13.56 8.30L13.56 8.30Q13.33 8.11 13.26 7.78L13.26 7.78L13.26 7.78Q13.36 6.96 14.14 6.42L14.14 6.42L14.14 6.42Q14.92 5.88 16.27 5.88L16.27 5.88L16.27 5.88Q16.93 5.88 17.39 6.03L17.39 6.03L17.39 6.03Q17.86 6.17 18.16 6.50L18.16 6.50L18.16 6.50Q18.45 6.83 18.59 7.37L18.59 7.37L18.59 7.37Q18.73 7.91 18.73 8.69L18.73 8.69L18.73 11.58L18.73 11.58Q18.73 11.80 18.82 11.94L18.82 11.94L18.82 11.94Q18.90 12.08 19.08 12.08L19.08 12.08L19.08 12.08Q19.22 12.08 19.31 12.00L19.31 12.00L19.31 12.00Q19.39 11.91 19.50 11.79L19.50 11.79L19.57 11.70ZM26.38 12.07L27.26 12.24L27.26 12.85L23.59 12.85L23.59 12.24L24.28 12.12L23.11 10.30L21.88 12.10L22.69 12.24L22.69 12.85L20.01 12.85L20.01 12.24L21.10 12.05L22.78 9.77L20.83 6.86L20.02 6.75L20.02 6.13L23.56 6.13L23.56 6.75L22.90 6.86L23.98 8.53L25.13 6.86L24.53 6.75L24.53 6.13L26.80 6.13L26.80 6.75L25.87 6.92L24.30 9.02L26.38 12.07ZM29.72 4.72L29.72 4.72L29.72 4.72Q29.25 4.72 28.90 4.40L28.90 4.40L28.90 4.40Q28.56 4.09 28.56 3.60L28.56 3.60L28.56 3.60Q28.56 3.11 28.90 2.80L28.90 2.80L28.90 2.80Q29.25 2.49 29.72 2.49L29.72 2.49L29.72 2.49Q30.21 2.49 30.55 2.80L30.55 2.80L30.55 2.80Q30.88 3.11 30.88 3.60L30.88 3.60L30.88 3.60Q30.88 4.09 30.55 4.40L30.55 4.40L30.55 4.40Q30.21 4.72 29.72 4.72ZM30.72 12.07L31.51 12.24L31.51 12.85L27.93 12.85L27.93 12.24L28.78 12.07L28.78 12.07Q28.80 11.54 28.80 10.95L28.80 10.95L28.80 10.95Q28.80 10.36 28.80 9.91L28.80 9.91L28.80 9.21L28.80 9.21Q28.80 8.64 28.78 8.25L28.78 8.25L28.78 8.25Q28.77 7.87 28.76 7.45L28.76 7.45L27.82 7.32L27.82 6.79L30.53 5.88L30.74 6.02L30.70 8.02L30.70 9.91L30.70 9.91Q30.70 10.36 30.70 10.96L30.70 10.96L30.70 10.96Q30.70 11.55 30.72 12.07L30.72 12.07ZM43.46 12.07L44.25 12.24L44.25 12.85L40.73 12.85L40.73 12.24L41.58 12.05L41.58 12.05Q41.59 11.55 41.59 10.96L41.59 10.96L41.59 10.96Q41.59 10.37 41.59 9.91L41.59 9.91L41.59 8.57L41.59 8.57Q41.59 7.03 40.74 7.03L40.74 7.03L40.74 7.03Q40.38 7.03 39.97 7.27L39.97 7.27L39.97 7.27Q39.56 7.50 39.23 7.81L39.23 7.81L39.23 7.81Q39.24 7.94 39.25 8.07L39.25 8.07L39.25 8.07Q39.26 8.20 39.26 8.34L39.26 8.34L39.26 9.91L39.26 9.91Q39.26 10.37 39.26 10.96L39.26 10.96L39.26 10.96Q39.26 11.55 39.27 12.07L39.27 12.07L40.07 12.24L40.07 12.85L36.54 12.85L36.54 12.24L37.39 12.05L37.39 12.05Q37.41 11.55 37.41 10.96L37.41 10.96L37.41 10.96Q37.41 10.37 37.41 9.91L37.41 9.91L37.41 8.57L37.41 8.57Q37.41 7.03 36.54 7.03L36.54 7.03L36.54 7.03Q36.18 7.03 35.78 7.27L35.78 7.27L35.78 7.27Q35.38 7.50 35.03 7.83L35.03 7.83L35.03 9.91L35.03 9.91Q35.03 10.36 35.03 10.96L35.03 10.96L35.03 10.96Q35.03 11.55 35.04 12.08L35.04 12.08L35.81 12.24L35.81 12.85L32.28 12.85L32.28 12.24L33.14 12.05L33.14 12.05Q33.15 11.54 33.15 10.95L33.15 10.95L33.15 10.95Q33.15 10.36 33.15 9.91L33.15 9.91L33.15 9.10L33.15 9.10Q33.15 8.81 33.15 8.60L33.15 8.60L33.15 8.60Q33.15 8.39 33.15 8.20L33.15 8.20L33.15 8.20Q33.14 8.01 33.13 7.83L33.13 7.83L33.13 7.83Q33.12 7.66 33.11 7.45L33.11 7.45L32.14 7.32L32.14 6.79L34.68 5.88L34.89 6.02L34.99 7.13L34.99 7.13Q35.52 6.47 36.01 6.17L36.01 6.17L36.01 6.17Q36.50 5.88 37.20 5.88L37.20 5.88L37.20 5.88Q38.72 5.88 39.12 7.17L39.12 7.17L39.12 7.17Q39.38 6.83 39.64 6.59L39.64 6.59L39.64 6.59Q39.90 6.34 40.17 6.18L40.17 6.18L40.17 6.18Q40.45 6.02 40.76 5.95L40.76 5.95L40.76 5.95Q41.08 5.88 41.47 5.88L41.47 5.88L41.47 5.88Q42.48 5.88 42.96 6.48L42.96 6.48L42.96 6.48Q43.44 7.07 43.44 8.34L43.44 8.34L43.44 9.91L43.44 9.91Q43.44 10.37 43.44 10.96L43.44 10.96L43.44 10.96Q43.44 11.55 43.46 12.07L43.46 12.07ZM51.86 12.07L52.67 12.24L52.67 12.85L50.09 12.99L49.99 11.83L49.99 11.83Q49.46 12.43 48.89 12.75L48.89 12.75L48.89 12.75Q48.31 13.06 47.64 13.06L47.64 13.06L47.64 13.06Q47.19 13.06 46.84 12.93L46.84 12.93L46.84 12.93Q46.48 12.80 46.22 12.50L46.22 12.50L46.22 12.50Q45.96 12.19 45.82 11.72L45.82 11.72L45.82 11.72Q45.68 11.24 45.70 10.54L45.70 10.54L45.75 6.97L44.98 6.83L44.98 6.27L47.50 6.02L47.67 6.13L47.60 8.12L47.60 10.28L47.60 10.28Q47.60 11.20 47.84 11.56L47.84 11.56L47.84 11.56Q48.08 11.91 48.45 11.91L48.45 11.91L48.45 11.91Q48.82 11.91 49.20 11.68L49.20 11.68L49.20 11.68Q49.59 11.44 49.95 11.09L49.95 11.09L50.01 6.97L49.24 6.83L49.24 6.30L51.73 6.02L51.90 6.13L51.86 8.12L51.86 12.07ZM64.72 12.07L65.52 12.24L65.52 12.85L61.99 12.85L61.99 12.24L62.85 12.05L62.85 12.05Q62.86 11.55 62.86 10.96L62.86 10.96L62.86 10.96Q62.86 10.37 62.86 9.91L62.86 9.91L62.86 8.57L62.86 8.57Q62.86 7.03 62.01 7.03L62.01 7.03L62.01 7.03Q61.64 7.03 61.24 7.27L61.24 7.27L61.24 7.27Q60.83 7.50 60.49 7.81L60.49 7.81L60.49 7.81Q60.51 7.94 60.51 8.07L60.51 8.07L60.51 8.07Q60.52 8.20 60.52 8.34L60.52 8.34L60.52 9.91L60.52 9.91Q60.52 10.37 60.52 10.96L60.52 10.96L60.52 10.96Q60.52 11.55 60.54 12.07L60.54 12.07L61.33 12.24L61.33 12.85L57.81 12.85L57.81 12.24L58.66 12.05L58.66 12.05Q58.67 11.55 58.67 10.96L58.67 10.96L58.67 10.96Q58.67 10.37 58.67 9.91L58.67 9.91L58.67 8.57L58.67 8.57Q58.67 7.03 57.81 7.03L57.81 7.03L57.81 7.03Q57.44 7.03 57.04 7.27L57.04 7.27L57.04 7.27Q56.64 7.50 56.29 7.83L56.29 7.83L56.29 9.91L56.29 9.91Q56.29 10.36 56.29 10.96L56.29 10.96L56.29 10.96Q56.29 11.55 56.31 12.08L56.31 12.08L57.08 12.24L57.08 12.85L53.55 12.85L53.55 12.24L54.40 12.05L54.40 12.05Q54.42 11.54 54.42 10.95L54.42 10.95L54.42 10.95Q54.42 10.36 54.42 9.91L54.42 9.91L54.42 9.10L54.42 9.10Q54.42 8.81 54.42 8.60L54.42 8.60L54.42 8.60Q54.42 8.39 54.41 8.20L54.41 8.20L54.41 8.20Q54.40 8.01 54.40 7.83L54.40 7.83L54.40 7.83Q54.39 7.66 54.38 7.45L54.38 7.45L53.41 7.32L53.41 6.79L55.94 5.88L56.15 6.02L56.25 7.13L56.25 7.13Q56.78 6.47 57.27 6.17L57.27 6.17L57.27 6.17Q57.76 5.88 58.46 5.88L58.46 5.88L58.46 5.88Q59.99 5.88 60.38 7.17L60.38 7.17L60.38 7.17Q60.65 6.83 60.91 6.59L60.91 6.59L60.91 6.59Q61.17 6.34 61.44 6.18L61.44 6.18L61.44 6.18Q61.71 6.02 62.03 5.95L62.03 5.95L62.03 5.95Q62.34 5.88 62.73 5.88L62.73 5.88L62.73 5.88Q63.74 5.88 64.22 6.48L64.22 6.48L64.22 6.48Q64.71 7.07 64.71 8.34L64.71 8.34L64.71 9.91L64.71 9.91Q64.71 10.37 64.71 10.96L64.71 10.96L64.71 10.96Q64.71 11.55 64.72 12.07L64.72 12.07ZM71.50 8.27L71.50 8.27L71.50 8.27Q71.50 9.03 71.62 9.75L71.62 9.75L71.62 9.75Q71.75 10.47 72.04 11.04L72.04 11.04L72.04 11.04Q72.32 11.61 72.77 11.95L72.77 11.95L72.77 11.95Q73.22 12.29 73.86 12.29L73.86 12.29L73.86 12.29Q74.51 12.29 74.96 11.95L74.96 11.95L74.96 11.95Q75.40 11.61 75.68 11.04L75.68 11.04L75.68 11.04Q75.96 10.47 76.10 9.75L76.10 9.75L76.10 9.75Q76.23 9.03 76.23 8.27L76.23 8.27L76.23 8.27Q76.23 7.52 76.10 6.79L76.10 6.79L76.10 6.79Q75.96 6.06 75.68 5.50L75.68 5.50L75.68 5.50Q75.40 4.93 74.96 4.59L74.96 4.59L74.96 4.59Q74.51 4.24 73.86 4.24L73.86 4.24L73.86 4.24Q73.22 4.24 72.77 4.59L72.77 4.59L72.77 4.59Q72.32 4.93 72.04 5.50L72.04 5.50L72.04 5.50Q71.75 6.06 71.62 6.79L71.62 6.79L71.62 6.79Q71.50 7.52 71.50 8.27ZM73.86 3.47L73.86 3.47L73.86 3.47Q74.69 3.47 75.50 3.77L75.50 3.77L75.50 3.77Q76.30 4.07 76.94 4.67L76.94 4.67L76.94 4.67Q77.59 5.26 77.98 6.17L77.98 6.17L77.98 6.17Q78.37 7.07 78.37 8.27L78.37 8.27L78.37 8.27Q78.37 9.48 77.98 10.37L77.98 10.37L77.98 10.37Q77.59 11.27 76.95 11.87L76.95 11.87L76.95 11.87Q76.31 12.46 75.50 12.76L75.50 12.76L75.50 12.76Q74.69 13.06 73.86 13.06L73.86 13.06L73.86 13.06Q73.04 13.06 72.23 12.76L72.23 12.76L72.23 12.76Q71.41 12.46 70.78 11.87L70.78 11.87L70.78 11.87Q70.14 11.27 69.75 10.37L69.75 10.37L69.75 10.37Q69.36 9.48 69.36 8.27L69.36 8.27L69.36 8.27Q69.36 7.07 69.75 6.17L69.75 6.17L69.75 6.17Q70.14 5.26 70.78 4.67L70.78 4.67L70.78 4.67Q71.43 4.07 72.23 3.77L72.23 3.77L72.23 3.77Q73.04 3.47 73.86 3.47ZM86.17 6.13L86.17 6.75L85.29 6.90L82.80 12.99L82.00 12.99L79.51 6.90L78.75 6.75L78.75 6.13L82.57 6.13L82.57 6.75L81.58 6.94L82.98 10.81L84.46 6.90L83.59 6.75L83.59 6.13L86.17 6.13ZM88.42 8.86L90.10 8.86L90.10 8.86Q90.61 8.86 90.80 8.65L90.80 8.65L90.80 8.65Q90.99 8.44 90.99 7.99L90.99 7.99L90.99 7.99Q90.99 7.32 90.71 6.95L90.71 6.95L90.71 6.95Q90.43 6.58 89.98 6.58L89.98 6.58L89.98 6.58Q89.74 6.58 89.49 6.69L89.49 6.69L89.49 6.69Q89.24 6.80 89.02 7.07L89.02 7.07L89.02 7.07Q88.80 7.34 88.64 7.78L88.64 7.78L88.64 7.78Q88.48 8.22 88.42 8.86L88.42 8.86ZM92.71 9.56L88.41 9.56L88.41 9.56Q88.45 10.81 89.02 11.39L89.02 11.39L89.02 11.39Q89.59 11.97 90.44 11.97L90.44 11.97L90.44 11.97Q91.06 11.97 91.45 11.70L91.45 11.70L91.45 11.70Q91.85 11.42 92.18 10.92L92.18 10.92L92.65 11.19L92.65 11.19Q92.37 12.11 91.60 12.59L91.60 12.59L91.60 12.59Q90.83 13.06 89.77 13.06L89.77 13.06L89.77 13.06Q89.01 13.06 88.38 12.82L88.38 12.82L88.38 12.82Q87.75 12.59 87.31 12.13L87.31 12.13L87.31 12.13Q86.87 11.68 86.63 11.01L86.63 11.01L86.63 11.01Q86.38 10.35 86.38 9.49L86.38 9.49L86.38 9.49Q86.38 8.69 86.65 8.04L86.65 8.04L86.65 8.04Q86.91 7.38 87.38 6.90L87.38 6.90L87.38 6.90Q87.85 6.41 88.49 6.15L88.49 6.15L88.49 6.15Q89.14 5.88 89.88 5.88L89.88 5.88L89.88 5.88Q90.55 5.88 91.09 6.10L91.09 6.10L91.09 6.10Q91.63 6.31 92.01 6.71L92.01 6.71L92.01 6.71Q92.39 7.10 92.59 7.64L92.59 7.64L92.59 7.64Q92.79 8.19 92.79 8.83L92.79 8.83L92.79 8.83Q92.79 9.23 92.71 9.56L92.71 9.56ZM96.43 6.02L96.57 7.39L96.57 7.39Q96.96 6.68 97.47 6.28L97.47 6.28L97.47 6.28Q97.97 5.88 98.46 5.88L98.46 5.88L98.46 5.88Q98.76 5.88 99.07 6.06L99.07 6.06L99.07 6.06Q99.39 6.24 99.50 6.75L99.50 6.75L99.50 6.75Q99.50 7.21 99.23 7.50L99.23 7.50L99.23 7.50Q98.97 7.78 98.52 7.78L98.52 7.78L98.52 7.78Q97.97 7.78 97.44 7.21L97.44 7.21L97.41 7.18L97.41 7.18Q97.16 7.42 96.94 7.72L96.94 7.72L96.94 7.72Q96.73 8.02 96.57 8.41L96.57 8.41L96.57 9.91L96.57 9.91Q96.57 10.36 96.57 10.93L96.57 10.93L96.57 10.93Q96.57 11.51 96.59 12.03L96.59 12.03L97.65 12.24L97.65 12.85L93.80 12.85L93.80 12.24L94.65 12.07L94.65 12.07Q94.67 11.55 94.67 10.96L94.67 10.96L94.67 10.96Q94.67 10.36 94.67 9.91L94.67 9.91L94.67 9.10L94.67 9.10Q94.67 8.81 94.67 8.60L94.67 8.60L94.67 8.60Q94.67 8.39 94.66 8.20L94.66 8.20L94.66 8.20Q94.65 8.01 94.65 7.83L94.65 7.83L94.65 7.83Q94.64 7.66 94.63 7.45L94.63 7.45L93.69 7.32L93.69 6.79L96.22 5.88L96.43 6.02ZM106.95 12.07L107.74 12.24L107.74 12.85L104.16 12.85L104.16 12.24L105.01 12.07L105.01 12.07Q105.03 11.55 105.03 10.96L105.03 10.96L105.03 10.96Q105.03 10.37 105.03 9.91L105.03 9.91L105.03 8.57L105.03 8.57Q105.03 7.77 104.86 7.40L104.86 7.40L104.86 7.40Q104.69 7.03 104.20 7.03L104.20 7.03L104.20 7.03Q103.80 7.03 103.41 7.25L103.41 7.25L103.41 7.25Q103.03 7.46 102.62 7.85L102.62 7.85L102.62 9.91L102.62 9.91Q102.62 10.36 102.62 10.96L102.62 10.96L102.62 10.96Q102.62 11.55 102.63 12.07L102.63 12.07L103.43 12.24L103.43 12.85L99.85 12.85L99.85 12.24L100.70 12.07L100.70 12.07Q100.72 11.54 100.72 10.95L100.72 10.95L100.72 10.95Q100.72 10.36 100.72 9.91L100.72 9.91L100.72 4.10L99.67 3.96L99.67 3.40L102.44 2.77L102.63 2.88L102.58 4.87L102.58 7.13L102.58 7.13Q102.87 6.79 103.13 6.56L103.13 6.56L103.13 6.56Q103.39 6.33 103.66 6.17L103.66 6.17L103.66 6.17Q103.92 6.02 104.22 5.95L104.22 5.95L104.22 5.95Q104.51 5.88 104.87 5.88L104.87 5.88L104.87 5.88Q105.87 5.88 106.40 6.48L106.40 6.48L106.40 6.48Q106.93 7.07 106.93 8.34L106.93 8.34L106.93 9.91L106.93 9.91Q106.93 10.37 106.93 10.97L106.93 10.97L106.93 10.97Q106.93 11.56 106.95 12.07L106.95 12.07ZM112.35 11.61L112.35 9.24L112.35 9.24Q112.08 9.31 111.85 9.39L111.85 9.39L111.85 9.39Q111.62 9.46 111.45 9.53L111.45 9.53L111.45 9.53Q110.84 9.77 110.60 10.14L110.60 10.14L110.60 10.14Q110.36 10.50 110.36 10.95L110.36 10.95L110.36 10.95Q110.36 11.23 110.44 11.40L110.44 11.40L110.44 11.40Q110.52 11.56 110.63 11.68L110.63 11.68L110.63 11.68Q110.92 11.97 111.41 11.97L111.41 11.97L111.41 11.97Q111.64 11.97 111.85 11.89L111.85 11.89L111.85 11.89Q112.06 11.82 112.35 11.61L112.35 11.61ZM115.09 11.70L115.46 11.97L115.46 11.97Q115.18 12.54 114.82 12.77L114.82 12.77L114.82 12.77Q114.46 12.99 113.93 12.99L113.93 12.99L113.93 12.99Q113.36 12.99 112.98 12.77L112.98 12.77L112.98 12.77Q112.60 12.54 112.45 12.18L112.45 12.18L112.45 12.18Q111.97 12.61 111.53 12.84L111.53 12.84L111.53 12.84Q111.09 13.06 110.43 13.06L110.43 13.06L110.43 13.06Q109.59 13.06 109.07 12.63L109.07 12.63L109.07 12.63Q108.54 12.21 108.54 11.38L108.54 11.38L108.54 11.38Q108.54 11.06 108.65 10.75L108.65 10.75L108.65 10.75Q108.75 10.43 109.04 10.13L109.04 10.13L109.04 10.13Q109.33 9.83 109.83 9.55L109.83 9.55L109.83 9.55Q110.33 9.27 111.13 9.00L111.13 9.00L111.13 9.00Q111.37 8.92 111.69 8.83L111.69 8.83L111.69 8.83Q112.01 8.74 112.35 8.64L112.35 8.64L112.35 8.22L112.35 8.22Q112.35 7.34 112.08 6.96L112.08 6.96L112.08 6.96Q111.82 6.58 111.15 6.58L111.15 6.58L111.15 6.58Q111.03 6.58 110.93 6.59L110.93 6.59L110.93 6.59Q110.82 6.59 110.71 6.61L110.71 6.61L110.60 7.42L110.60 7.42Q110.53 7.97 110.26 8.23L110.26 8.23L110.26 8.23Q110.00 8.50 109.63 8.50L109.63 8.50L109.63 8.50Q109.31 8.50 109.08 8.30L109.08 8.30L109.08 8.30Q108.85 8.11 108.78 7.78L108.78 7.78L108.78 7.78Q108.88 6.96 109.66 6.42L109.66 6.42L109.66 6.42Q110.45 5.88 111.79 5.88L111.79 5.88L111.79 5.88Q112.45 5.88 112.92 6.03L112.92 6.03L112.92 6.03Q113.39 6.17 113.68 6.50L113.68 6.50L113.68 6.50Q113.97 6.83 114.11 7.37L114.11 7.37L114.11 7.37Q114.25 7.91 114.25 8.69L114.25 8.69L114.25 11.58L114.25 11.58Q114.25 11.80 114.34 11.94L114.34 11.94L114.34 11.94Q114.42 12.08 114.60 12.08L114.60 12.08L114.60 12.08Q114.74 12.08 114.83 12.00L114.83 12.00L114.83 12.00Q114.91 11.91 115.02 11.79L115.02 11.79L115.09 11.70ZM122.54 12.07L123.35 12.24L123.35 12.85L120.78 12.99L120.68 11.83L120.68 11.83Q120.15 12.43 119.57 12.75L119.57 12.75L119.57 12.75Q119.00 13.06 118.33 13.06L118.33 13.06L118.33 13.06Q117.88 13.06 117.52 12.93L117.52 12.93L117.52 12.93Q117.17 12.80 116.91 12.50L116.91 12.50L116.91 12.50Q116.65 12.19 116.51 11.72L116.51 11.72L116.51 11.72Q116.37 11.24 116.38 10.54L116.38 10.54L116.44 6.97L115.67 6.83L115.67 6.27L118.19 6.02L118.36 6.13L118.29 8.12L118.29 10.28L118.29 10.28Q118.29 11.20 118.52 11.56L118.52 11.56L118.52 11.56Q118.76 11.91 119.14 11.91L119.14 11.91L119.14 11.91Q119.50 11.91 119.89 11.68L119.89 11.68L119.89 11.68Q120.27 11.44 120.64 11.09L120.64 11.09L120.69 6.97L119.92 6.83L119.92 6.30L122.42 6.02L122.58 6.13L122.54 8.12L122.54 12.07ZM126.91 12.07L127.69 12.24L127.69 12.85L124.14 12.85L124.14 12.24L124.98 12.07L124.98 12.07Q124.99 11.52 125.00 10.98L125.00 10.98L125.00 10.98Q125.01 10.44 125.01 9.91L125.01 9.91L125.01 4.10L123.96 3.96L123.96 3.40L126.74 2.77L126.94 2.88L126.88 4.87L126.88 9.91L126.88 9.91Q126.88 10.44 126.89 10.99L126.89 10.99L126.89 10.99Q126.90 11.54 126.91 12.07L126.91 12.07Z"></path></g><defs data-v-fde0c5aa=""><linearGradient data-v-fde0c5aa="" gradientTransform="rotate(25)" id="a3b55932-f3b5-4265-b5d6-8c83de5f266b" x1="0%" y1="0%" x2="100%" y2="0%"><stop data-v-fde0c5aa="" offset="0%" stop-color="#276D8E" stop-opacity="1"></stop><stop data-v-fde0c5aa="" offset="100%" stop-color="#DDDFD4" stop-opacity="1"></stop></linearGradient></defs><g data-v-fde0c5aa="" id="e5890a6c-79c6-4ade-a40a-9756592a12cc" stroke="none" fill="url(#a3b55932-f3b5-4265-b5d6-8c83de5f266b)" transform="matrix(0.7155572175979614,0,0,0.7155572175979614,40,138.55108464599118)"><path d="M0 16.024L15.976 32 32 15.976 16.024 0 0 16.024zm15.989 7.323l-7.336-7.336 14.694-.022-7.358 7.358z"></path></g><!----></svg>